<svg xmlns="http://www.w3.org/2000/svg" height="24px" viewBox="0 -960 960 960" width="24px" fill="#1f1f1f"><path d="M431.52-271.52h96.96V-520h-96.96v248.48Zm84.89-331.93Q531.3-618.2 531.3-640q0-21.8-14.75-36.55Q501.8-691.3 480-691.3q-21.8 0-36.55 14.75Q428.7-661.8 428.7-640q0 21.8 14.89 36.55Q458.48-588.7 480-588.7q21.52 0 36.41-14.75ZM480-60.78q-87.52 0-163.91-32.96-76.38-32.96-132.88-89.47-56.51-56.5-89.47-132.88Q60.78-392.48 60.78-480t32.96-163.91q32.96-76.38 89.47-132.88 56.5-56.51 132.88-89.47 76.39-32.96 163.91-32.96t163.91 32.96q76.38 32.96 132.88 89.47 56.51 56.5 89.47 132.88 32.96 76.39 32.96 163.91t-32.96 163.91q-32.96 76.38-89.47 132.88-56.5 56.51-132.88 89.47Q567.52-60.78 480-60.78Z"/></svg>