<svg xmlns="http://www.w3.org/2000/svg" height="24px" viewBox="0 -960 960 960" width="24px" fill="#1f1f1f"><path d="M516.04-256.48q16.48-16.48 16.48-39.74t-16.48-39.45q-16.47-16.2-39.74-16.2-23.26 0-39.74 16.2-16.47 16.19-16.47 39.45t16.47 39.74Q453.04-240 476.3-240q23.27 0 39.74-16.48ZM434.09-394h85.3q0-30.74 7.78-50.3 7.79-19.57 39.96-50.31 24.3-23.74 39.02-48.09 14.72-24.34 14.72-58.47 0-58.26-39.87-89.11t-95.87-30.85q-59.26 0-97.59 32.83-38.32 32.82-53.45 78.21l78.43 29.96q6.13-19.13 22.22-39.57 16.09-20.43 47.56-20.43 25.22 0 38.4 14.67 13.17 14.68 13.17 32.29 0 17.17-11.15 33.82-11.16 16.65-25.2 28.26-41.74 37.87-52.59 59.85-10.84 21.98-10.84 77.24ZM480-60.78q-87.52 0-163.91-32.91-76.39-32.92-132.94-89.46-56.54-56.55-89.46-132.94Q60.78-392.48 60.78-480t32.91-163.91q32.92-76.39 89.46-132.94 56.55-56.54 132.94-89.46 76.39-32.91 163.91-32.91t163.91 32.91q76.39 32.92 132.94 89.46 56.54 56.55 89.46 132.94 32.91 76.39 32.91 163.91t-32.91 163.91q-32.92 76.39-89.46 132.94-56.55 56.54-132.94 89.46Q567.52-60.78 480-60.78Z"/></svg>