<svg xmlns="http://www.w3.org/2000/svg" height="24px" viewBox="0 -960 960 960" width="24px" fill="#1f1f1f"><g transform="rotate(90,480,-480) translate(0,-960) scale(1,-1)"><path d="M331.87-87.3q-69.17-29.92-120.5-81.24-51.33-51.33-81.24-120.5-29.91-69.18-29.91-147.57h106q0 114.17 79.8 193.69 79.81 79.53 193.97 79.53 114.17 0 193.7-79.69 79.53-79.69 79.53-194.09 0-114.17-79.69-193.7-79.69-79.52-194.1-79.52h-6.56l57.48 57.48-62.22 64.21-174.7-174.69 174.7-174.7 62.22 64.79-56.92 56.91h6q79.12 0 148.22 29.91 69.09 29.91 120.7 81.24t81.52 120.25q29.91 68.93 29.91 147.85 0 78.92-29.91 148.1-29.91 69.17-81.24 120.5-51.33 51.32-120.38 81.24-69.06 29.91-148.13 29.91-79.08 0-148.25-29.91Z"/></g></svg>