<svg xmlns="http://www.w3.org/2000/svg" height="96px" viewBox="0 -960 960 960" width="96px" fill="#1f1f1f">
  <g transform="translate(120, -120) scale(0.75)">
    <path d="M111.74-149.48q-50.96-50.95-50.96-122.04t50.96-122.05q50.96-50.95 122.04-50.95 19.05 0 35.15 3.8 16.11 3.81 31.85 11.42v-352.18l518.44-80v509.96q0 71.09-50.96 122.04-50.96 50.96-122.04 50.96-71.09 0-122.05-50.96-50.95-50.95-50.95-122.04t50.95-122.05q50.96-50.95 122.05-50.95 19.04 0 35.15 3.8 16.11 3.81 31.85 11.42v-155.4L406.78-613v341.48q0 71.09-50.95 122.04-50.96 50.96-122.05 50.96-71.08 0-122.04-50.96Z"/>
  </g>
  <g transform="scale(0.42) translate(-100, -1300)">
    <path d="M271.74-149.48q-50.96-50.95-50.96-122.04t50.82-122.05q50.82-50.95 122.18-50.95 19.02 0 35.14 3.8 16.12 3.81 31.86 11.42v-432.18h279v186h-173v403.96q0 71.36-50.95 122.18-50.96 50.82-122.05 50.82-71.08 0-122.04-50.96Z"/>
  </g>
</svg>
