<svg xmlns="http://www.w3.org/2000/svg" height="24px" viewBox="0 -960 960 960" width="24px" fill="#1f1f1f"><path d="M668.7-201v-106h256.52v106H668.7Zm-80-226v-106h336.52v106H588.7Zm-80-226v-106h416.52v106H508.7ZM194.02-524.64q-39.8-40.12-39.8-97.44 0-57.31 39.8-97.12 39.8-39.8 97.12-39.8 57.31 0 97.43 39.8 40.13 39.81 40.13 97.12 0 57.32-40.13 97.44-40.12 40.12-97.43 40.12-57.32 0-97.12-40.12ZM34.22-201v-92.83q0-25.65 12.23-48.59 12.23-22.95 34.24-36.23 47.26-28.13 99.77-42.48 52.52-14.35 110.74-14.35 58.23 0 110.99 14.35 52.77 14.35 100.03 42.48 22.01 13.31 34.24 36.3 12.24 22.99 12.24 48.39V-201H34.22Z"/></svg>